<svg fill-opacity="0.8" fill="#3498DB" stroke="#000000" stroke-width="1"  xmlns="http://www.w3.org/2000/svg" version="1.1" width="687.5891" height="1443.3832" viewbox="0 0 687.5891 1443.3832">
 <g data-feature-class="Admin-0 country">
  <path d="M469.650375929 454.22162944215 L469.01423904749 442.13269137388 L466.49966385217 437.57966712319 L472.57216141079 438.3666587298 L475.63399002408 432.66690774673 L480.94736079233 433.32117959045 L481.52717036264 437.26302296805 L483.68052729625 439.53250131679 L483.77302811005 442.78801929235 L481.30599523244 444.88422895345 L477.41372635221 450.11162018494 L473.785524041 453.74423336068 L469.650375929 454.22162944215"/>
 </g>
 <g data-feature-class="Admin-0 country">
  <path d="M203.16741694356 346.46244102488 L194.90280512712 347.63590138032 L192.43990636409 340.69259918971 L192.89517573258 317.50088541085 L190.88082840185 315.41350901217 L190.5010066245 310.43637203143 L187.02835037449 306.88022313201 L183.97375646171 303.87963148073 L185.24603022474 298.52052744145 L188.68509679377 297.36741996345 L190.72218175471 292.90844056474 L195.6102554852 291.95466862679 L197.7951350425 288.90021997998 L201.15203608418 285.90479441221 L204.73683019227 285.87835574883 L212.36220454126 291.76049889179 L211.97256424177 295.15077236924 L214.22152257512 301.194408875 L212.25110021183 305.28901284954 L213.30478266626 308.02194669816 L208.45391596702 314.30335342645 L205.3734838381 317.40955213836 L203.4883275881 323.79273049263 L203.741025342 330.21940051889 L203.16741694356 346.46244102488"/>
 </g>
 <g data-feature-class="Admin-0 country">
  <path d="M147.97543696287 312.2924393864 L141.13141027014 309.67582322398 L136.44590815423 310.06136440336 L132.9479304524 312.61321621773 L128.45156407868 310.47098600631 L126.70386713857 307.11279974283 L122.20698400053 304.89712836296 L121.54475052071 298.9898046827 L124.27197423491 294.66928937113 L124.04098058257 291.21221411022 L131.97873896476 282.73505674818 L133.44634964185 275.69986848284 L136.18649246413 273.19166490606 L141.022372998 274.57766443887 L145.21333165687 272.48428681022 L146.57345535479 269.84056336557 L154.3321548991 265.2201987416 L156.24004877931 261.99285605243 L165.58676508794 257.70310064139 L171.09185542 256.22914925223 L173.58782709969 258.21550285452 L179.99932205415 258.16790470449 L179.20686396495 263.17835930862 L180.54967605806 267.87729821789 L186.1808568849 274.59731465983 L186.49143224297 279.56574666891 L198.02147781594 281.89106008882 L197.7951350425 288.90021997998 L195.6102554852 291.95466862679 L190.72218175471 292.90844056474 L188.68509679377 297.36741996345 L185.24603022474 298.52052744145 L176.48842524424 298.30310327815 L171.86338455411 297.49143988889 L168.63464106452 299.1358631662 L164.21682286789 298.3933914961 L146.8463069173 298.87347917329 L146.61143753253 304.64705353696 L147.97543696287 312.2924393864"/>
 </g>
 <g data-feature-class="Admin-0 country">
  <path d="M147.68914952798 359.16733015433 L143.139556429 359.26951994086 L136.16220454095 357.30662474375 L129.75122635082 357.42259410313 L117.90543777656 359.17511115832 L110.96270909814 362.07161145158 L101.0609879067 365.75106301801 L99.128806103303 365.48752870212 L99.89671788716 357.22282453677 L100.85324864888 355.96568741985 L100.54887446268 352.00731779328 L96.313474072041 347.79650108845 L93.13692377906 347.12418501454 L90.221597851314 344.36203041527 L92.395883739994 339.88920186635 L91.395944775147 335.01719189715 L91.857415315513 332.08346840045 L93.443365022551 332.07199650442 L94.032476350678 327.66864903262 L93.259913687914 325.71745453628 L94.215410920991 324.31233479371 L97.929396109808 323.09641929031 L95.459262646257 314.99190595075 L93.154235383878 310.80032539497 L93.957028759532 307.3534963866 L95.950963899514 306.56598195863 L97.254501904076 305.64277075476 L100.02280838195 307.16844765958 L107.74533442365 307.25218023071 L109.58579055972 304.28635419803 L111.31074986963 304.484704507 L114.19817052394 303.33804126605 L115.74587967108 307.68524539191 L118.08113764635 306.40320510619 L122.20698400053 304.89712836296 L126.70386713857 307.11279974283 L128.45156407868 310.47098600631 L132.9479304524 312.61321621773 L136.44590815423 310.06136440336 L141.13141027014 309.67582322398 L147.97543696287 312.2924393864 L150.62850499674 326.69578117722 L146.4145503255 335.17351881178 L143.80669916989 346.54639821743 L148.14338536782 355.20531374003 L147.68914952798 359.16733015433"/>
 </g>
 <g data-feature-class="Admin-0 country">
  <path d="M484.58899897594 374.06184146316 L483.9838679538 385.77012051598 L487.99189204236 387.12536727969 L484.77710118948 390.67828365296 L480.9354752129 393.33538872136 L477.11193598763 398.55172459328 L475.00818842903 403.20155366428 L474.44543208137 411.22856652076 L472.12877762172 415.04962043397 L472.04506180141 422.5898175691 L469.16926834437 425.37817813281 L468.79874832483 431.33208033408 L467.42518875452 432.10368958198 L466.49966385217 437.57966712319 L469.01423904749 442.13269137388 L469.650375929 454.22162944215 L471.45026606573 463.4562656722 L470.45032710088 468.68214127191 L472.4507217949 474.51678725592 L478.25036779102 480.15613832554 L483.65055496552 492.87161633526 L479.71126053191 491.84336526259 L466.2795222506 493.54908165669 L463.59906570763 494.75752818951 L460.74911046673 501.21799365728 L462.98721674929 505.68790753929 L461.21109777142 517.71776591545 L459.9729304537 527.95367311915 L462.67457433392 529.77185429497 L469.66587885869 533.75302959559 L472.41041417771 531.89202540512 L473.2465388522 542.94674733004 L465.59325922977 542.86180269822 L461.48601639121 537.2140689948 L457.8014867688 532.84960254971 L450.13838862424 531.41997069999 L447.89459793412 526.06544951724 L441.781275994 529.29012906342 L433.77349604605 527.86498590392 L430.43158116973 523.23071043384 L424.08209793403 522.29010078613 L419.39556228948 522.53615828954 L418.82195389104 519.36847904939 L415.37255203556 519.11215704507 L410.81830805767 518.51170118914 L404.62385411885 520.03701893663 L400.27838292742 519.78695708549 L397.80308182064 520.7215055501 L398.33793289486 508.61896245285 L395.00221919042 504.85414467142 L394.26841385188 498.62367221845 L395.74170893652 492.52692150849 L393.71495926203 488.62974732309 L393.5315079274 482.28174813044 L381.39788162527 482.36979403292 L382.26862950938 478.73891258123 L377.16661534921 478.77691490766 L376.6276301604 480.52275017132 L370.42542475673 480.91647366786 L367.91653396896 486.79362103453 L366.4179174325 489.31798094354 L360.89215652753 487.89207065192 L357.59261632569 489.31224084143 L350.98010004962 490.12898141267 L347.15035965247 484.85142331168 L344.85230870845 481.59046495671 L341.98219965896 475.54986852645 L339.51568354567 468.05351661154 L310.00637364972 467.92052741292 L306.49909419007 469.12845610935 L303.60211339579 468.94036559279 L299.47471674864 470.29195537669 L298.0737686692 467.17356055458 L300.61728266661 466.11197667363 L300.9304418463 461.73262636735 L302.56651769266 459.15142334246 L306.20557205465 457.04207598079 L308.83280187237 458.06425148598 L312.25274816145 454.22318452906 L317.69996088933 454.32219241137 L318.34074864975 457.16238498055 L322.07643794013 458.94030305397 L327.96031652088 452.65219525903 L333.78580073315 447.75623169677 L336.31329503654 444.54923896406 L335.97843175529 436.3095201354 L340.3213191251 426.58741019548 L344.90346837642 421.43455922963 L351.48756261473 416.61397208658 L352.6368464689 413.42381589857 L352.88592687255 409.75630067049 L354.51580154703 406.28621589775 L353.99231928792 400.61855573827 L355.2387548348 391.75445719169 L357.19315750407 385.51152034884 L360.18832351971 380.15863050612 L360.7810521981 374.10973183433 L361.68022211998 367.11989589915 L365.57352452885 362.02727856462 L370.92823644293 358.79538740806 L379.15719152109 362.20616393049 L385.52631180106 365.90653618654 L392.8416275563 366.89371707965 L400.30163732196 368.85061053313 L403.29163569436 362.79437948928 L404.66519526468 362.02105638251 L409.2225398285 363.0287188269 L420.35571040146 358.01978995394 L424.30068924262 360.14325610233 L427.53873449003 359.84216851997 L429.03838455514 357.40106080266 L432.75495356557 356.54070654631 L440.27800857863 357.59719275374 L446.69105382605 357.82834053123 L449.99266108518 356.76307112656 L456.05017247843 365.04776601697 L460.54033768027 366.26385331834 L463.21717687299 364.57972843111 L467.84118403447 365.23979285203 L473.41035314256 363.11789017782 L475.78540197069 367.40150918433 L484.58899897594 374.06184146316"/>
 </g>
 <g data-feature-class="Admin-0 country">
  <g>
   <path d="M339.51568354567 468.05351661154 L341.98219965896 475.54986852645 L344.85230870845 481.59046495671 L347.15035965247 484.85142331168 L350.98010004962 490.12898141267 L357.59261632569 489.31224084143 L360.89215652753 487.89207065192 L366.4179174325 489.31798094354 L367.91653396896 486.79362103453 L370.42542475673 480.91647366786 L376.6276301604 480.52275017132 L377.16661534921 478.77691490766 L382.26862950938 478.73891258123 L381.39788162527 482.36979403292 L393.5315079274 482.28174813044 L393.71495926203 488.62974732309 L395.74170893652 492.52692150849 L394.26841385188 498.62367221845 L395.00221919042 504.85414467142 L398.33793289486 508.61896245285 L397.80308182064 520.7215055501 L400.27838292742 519.78695708549 L404.62385411885 520.03701893663 L410.81830805767 518.51170118914 L415.37255203556 519.11215704507 L416.42933507593 522.27587539362 L415.29193680118 527.22472615919 L417.04945226343 532.01890738829 L415.55962072045 535.85356873444 L416.41176508895 539.39266873586 L395.58926346126 539.26331101599 L395.12882644954 572.1320993351 L401.87518468524 580.66451179091 L408.40088455506 587.2040172702 L390.02216141046 591.48237268403 L365.81226964604 589.99529153528 L358.88349360434 584.96993942583 L318.34746658595 585.42196075826 L316.83541417709 586.15841500972 L310.8740209479 581.42509753742 L304.39121251688 581.11283285572 L298.40501460019 582.89416569713 L293.59238846085 584.88550170134 L292.65136062882 578.31114322084 L294.03577224992 569.15263546091 L297.48620763404 559.65948632447 L298.00658930722 555.2232510279 L301.25135249083 545.93280562156 L303.63518631245 541.72116903261 L309.37953852602 535.01135398178 L312.5876114427 530.45761260262 L313.63767654687 522.89342627361 L313.11419428775 517.11916240253 L310.12367915102 513.48268067318 L307.4602758307 507.32091002478 L305.00409500387 501.23840813482 L305.54101313538 499.13370508797 L308.6147273281 495.12227822857 L305.58080398824 485.36439143128 L303.53338374084 478.61605782787 L298.52387039446 472.24693161752 L299.47471674864 470.29195537669 L303.60211339579 468.94036559279 L306.49909419007 469.12845610935 L310.00637364972 467.92052741292 L339.51568354567 468.05351661154"/>
  </g>
  <g>
   <path d="M300.61728266661 466.11197667363 L298.0737686692 467.17356055458 L295.40003006242 459.62037325025 L299.43647618874 455.28746061268 L302.45799718485 453.6001394311 L306.20557205465 457.04207598079 L302.56651769266 459.15142334246 L300.9304418463 461.73262636735 L300.61728266661 466.11197667363"/>
  </g>
 </g>
 <g data-feature-class="Admin-0 country">
  <path d="M432.7420344575 597.85633649069 L434.75431473095 599.73879613629 L437.89830887159 605.85912826796 L449.21544754351 617.53699271581 L453.49787348753 618.68467646941 L453.52267817503 622.45493865839 L456.46410070109 629.25562248102 L464.19696202924 630.90590687696 L470.57228348109 635.77476852306 L456.42275955525 643.74369099947 L447.44449620886 651.86635157455 L444.11446691197 659.15548080996 L441.10793208123 663.28119210226 L435.66692052522 664.16196333851 L433.90888829865 669.43857878904 L432.89706375438 672.89015074677 L426.50210525826 675.47223274494 L418.36306717229 674.92342008694 L413.58609777123 671.81947985066 L409.3713679535 670.47591739204 L404.49311274515 673.04129275981 L402.04571691181 678.35883831782 L397.31008865658 681.70935751672 L392.30936030369 686.69623211516 L385.14649002372 687.83885735808 L382.91510167735 683.91052660819 L383.83649246512 677.12119108982 L377.90765538827 666.60310728835 L375.20807856534 664.94825504662 L375.20497797941 633.16357963861 L385.06174067476 632.78837045475 L385.35681310315 594.86545429007 L392.80080317479 594.51723670897 L408.21898351339 590.83505640998 L412.04045568138 595.17128751696 L418.42404536239 591.04845045049 L421.45745193793 591.0251008041 L427.09483393665 588.65906509602 L428.89265701608 589.44343380109 L432.7420344575 597.85633649069"/>
 </g>
 <g data-feature-class="Admin-0 country">
  <path d="M307.00862381247 386.49857173993 L305.76373855856 385.95294795562 L299.84420323952 387.24198348427 L293.767054802 385.90148757236 L289.01489008844 386.55908040108 L272.74198155973 386.33074938478 L274.20235753629 378.42666670256 L270.29406896206 371.80372067433 L265.73155675501 370.10392438767 L263.69963943729 365.61139356743 L261.13855545291 364.17308696142 L261.2532771326 361.40036571409 L263.82572993209 354.29507620608 L268.58202876023 344.59423824632 L271.47745926154 344.50374865879 L277.43316808318 338.61004413557 L281.22415115611 338.44290013327 L286.8382787603 342.58176217502 L293.70814366919 339.18823307447 L294.64348709367 334.99869284921 L296.8898616054 330.93534356755 L298.43912104551 325.82477673269 L303.78711502339 321.65950190231 L305.80507970439 314.57077616631 L307.92639724997 312.31104736013 L309.33716385154 307.03510105764 L311.97989659895 300.54476872261 L320.40418859117 292.65684032916 L320.93232172919 289.26200799843 L322.02217768623 287.415600559 L318.06376297267 283.33929617255 L318.38570714585 280.07639221326 L321.20827387763 279.48809424922 L325.18425857817 286.04808747182 L325.85191808338 292.82826846937 L325.48604894275 299.60030855555 L330.92912755605 308.8432166187 L325.34393875395 308.74378300432 L322.52240555081 309.46677307531 L317.96506098699 308.44677611059 L315.79258377344 313.23529113642 L321.69506586982 319.14867690609 L326.05035558338 320.8668472241 L327.45905512765 325.05334996373 L330.61131749746 332.01515802078 L329.04500483469 334.74777562445 L324.01585444405 344.95644058567 L321.61600092841 346.78292676459 L320.84447179429 354.57540348603 L321.83975988024 358.80472514136 L321.0341243008 361.79549852916 L325.7599340339 367.03362227774 L326.61259516671 370.63275146706 L330.30435948964 375.80360171211 L334.87772374747 379.02618379321 L335.32420812248 383.59307035634 L336.37892410555 386.49314146312 L335.65958816805 391.89611554104 L327.71381993885 389.53146523281 L319.62852534247 386.89109781625 L307.00862381247 386.49857173993"/>
 </g>
 <g data-feature-class="Admin-0 country">
  <path d="M306.20557205465 457.04207598079 L302.45799718485 453.6001394311 L299.43647618874 455.28746061268 L295.40003006242 459.62037325025 L287.18812820692 448.99574439174 L294.80161697648 443.46461640173 L291.03078771214 436.8423961784 L294.46003575903 434.32514751432 L301.20742752338 433.09929261201 L302.00324458068 428.66433000289 L307.34658767966 433.4701407092 L316.17447260808 433.89117166788 L319.24250239325 429.16226937663 L320.50495763414 422.51073108475 L319.41458491278 414.70182082755 L314.68360753646 408.7878842003 L319.01305903387 397.20529154785 L316.51708735417 395.21730618113 L309.07671463279 396.0324715081 L306.28153641012 390.86338073484 L307.00862381247 386.49857173993 L319.62852534247 386.89109781625 L327.71381993885 389.53146523281 L335.65958816805 391.89611554104 L336.37892410555 386.49314146312 L341.62098139724 377.17629160978 L347.58082433346 371.86715878345 L354.34940343505 373.55056405526 L360.7810521981 374.10973183433 L360.18832351971 380.15863050612 L357.19315750407 385.51152034884 L355.2387548348 391.75445719169 L353.99231928792 400.61855573827 L354.51580154703 406.28621589775 L352.88592687255 409.75630067049 L352.6368464689 413.42381589857 L351.48756261473 416.61397208658 L344.90346837642 421.43455922963 L340.3213191251 426.58741019548 L335.97843175529 436.3095201354 L336.31329503654 444.54923896406 L333.78580073315 447.75623169677 L327.96031652088 452.65219525903 L322.07643794013 458.94030305397 L318.34074864975 457.16238498055 L317.69996088933 454.32219241137 L312.25274816145 454.22318452906 L308.83280187237 458.06425148598 L306.20557205465 457.04207598079"/>
 </g>
 <g data-feature-class="Admin-0 country">
  <path d="M329.04500483469 334.74777562445 L337.31271723707 333.98972638653 L339.15601557692 331.39457856218 L340.81224523187 331.59171359668 L343.31028396886 333.87635957791 L355.89969640381 330.01567999242 L360.14594884523 326.07257285808 L365.36061762781 322.53823414244 L364.37049718509 318.97603117931 L367.19048009526 318.04517342393 L376.84725499764 318.67440482578 L386.25908361096 313.98063779197 L393.48861648859 302.90070662263 L398.56169184669 298.77978386866 L404.89205480244 297.04246847763 L406.02583572693 301.40084469214 L411.79344233502 307.75741733382 L411.82289790143 311.89928948942 L410.19819087017 316.11833800199 L410.84052892356 319.2658621126 L414.30853429467 322.1799178384 L421.92409012152 326.59918633628 L427.39972488717 330.68001757316 L427.49170893665 333.95949552391 L434.21687983511 339.20905800405 L438.38458409945 343.56651448791 L440.90949458123 349.60123121874 L448.38449051225 353.57888420247 L449.99266108518 356.76307112656 L446.69105382605 357.82834053123 L440.27800857863 357.59719275374 L432.75495356557 356.54070654631 L429.03838455514 357.40106080266 L427.53873449003 359.84216851997 L424.30068924262 360.14325610233 L420.35571040146 358.01978995394 L409.2225398285 363.0287188269 L404.66519526468 362.02105638251 L403.29163569436 362.79437948928 L400.30163732196 368.85061053313 L392.8416275563 366.89371707965 L385.52631180106 365.90653618654 L379.15719152109 362.20616393049 L370.92823644293 358.79538740806 L365.57352452885 362.02727856462 L361.68022211998 367.11989589915 L360.7810521981 374.10973183433 L354.34940343505 373.55056405526 L347.58082433346 371.86715878345 L341.62098139724 377.17629160978 L336.37892410555 386.49314146312 L335.32420812248 383.59307035634 L334.87772374747 379.02618379321 L330.30435948964 375.80360171211 L326.61259516671 370.63275146706 L325.7599340339 367.03362227774 L321.0341243008 361.79549852916 L321.83975988024 358.80472514136 L320.84447179429 354.57540348603 L321.61600092841 346.78292676459 L324.01585444405 344.95644058567 L329.04500483469 334.74777562445"/>
 </g>
 <g data-feature-class="Admin-0 country">
  <path d="M607.062660272 281.12625134421 L609.42892410665 284.29685154282 L609.11421463399 288.54472381997 L603.40913650897 290.98975639363 L607.70344803242 293.78280384844 L604.01891841001 299.23823147765 L601.7997 297.4224587279 L599.3918 298.14500206398 L593.8061 297.97474987715 L593.6463 294.87365449642 L592.868 292.05625863547 L596.2504 287.26588666904 L599.766 282.73931410216 L604.04682368345 283.62853064514 L607.062660272 281.12625134421"/>
 </g>
 <g data-feature-class="Admin-0 country">
  <path d="M296.24545649472 167.60415333687 L261.9793310063 188.23869572794 L233.02605952181 209.22415267511 L218.924594678 213.95138818494 L207.83173172223 214.98747332734 L207.71701004254 208.24333264512 L203.08628494486 206.51488823614 L196.86030838234 203.47131645435 L194.48267573259 198.47275292333 L160.74985102542 174.98787565551 L127.01702631826 151.1234406019 L89.40640213191 124.13980980571 L89.599155224358 121.95582199959 L89.594504345452 121.20022978284 L89.50923823217 107.74925754379 L105.65812332338 99.29464716195 L115.64407709946 97.540118793132 L123.82910721017 94.441107712105 L127.65393834626 88.644269548419 L139.34598953445 84.041601210932 L139.7754206868 75.380057270122 L145.56059728187 74.355316948129 L150.0843521647 69.998431581097 L163.17140864262 68.007122611974 L165.00488846034 63.40132266352 L162.36990717777 60.874540387506 L158.91585444339 48.229998026095 L158.32054194338 40.874207090506 L154.55126297201 33.069792768886 L164.16437128911 26.362390443716 L174.97585607105 24.219308072466 L181.28916580415 19.112983131458 L190.91958572607 15.328824354334 L207.86738846051 13.105685084647 L224.40798090849 12.092137292816 L229.45160070018 13.946695273394 L238.86859695673 9.0171521360156 L249.55424962604 8.9202706997702 L253.62118484741 11.833736609689 L260.46004389692 11.074279702289 L258.42864334352 17.474896585315 L260.01407628624 29.252134723533 L257.66021479534 39.328722482416 L251.49521642292 46.086770853137 L252.37681635782 55.143204914428 L260.55512853233 62.2508235563 L260.64142817426 65.124891873946 L266.80642654668 69.899914374685 L271.07179926805 90.889340247547 L274.30674392952 101.0708528712 L274.85037999723 106.39338844019 L273.08924718473 115.68121388264 L273.81168370817 120.84078941312 L272.54096023811 127.00626764711 L273.4132584152 134.05208160461 L269.44450841518 138.71355339779 L275.35732579802 146.80454407067 L275.73301346078 151.53838700496 L279.28886876678 157.67433951872 L283.96403559623 155.66132461733 L291.85709386449 160.76044320587 L296.24545649472 167.60415333687"/>
 </g>
 <g data-feature-class="Admin-0 country">
  <path d="M525.4764 100.19002184303 L522.6678 104.79874768515 L520.5159 113.41299641543 L517.7955 119.31479471499 L515.464 121.28745127659 L512.1315 117.63950427229 L507.618 112.57576795492 L500.4827 96.164516327718 L499.455 97.209213724639 L503.5986 109.30150102234 L509.738 120.70942640873 L517.2959 138.17957591362 L520.9891 144.22228705918 L524.2011 150.47048443864 L533.1745 162.63463256731 L531.1876 164.54065336302 L531.5102 171.62391289635 L543.1573 181.35032967998 L544.9127 183.56131009749 L505.2504 183.56131009749 L466.4504 183.56131009749 L426.2504 183.56131009749 L426.2504 143.29119969511 L426.2504 103.20418878794 L423.2511 93.935847420407 L425.8266 86.78097436762 L424.2791 81.797877304811 L427.8986 76.180153815039 L441.2037 75.986124565487 L450.8266 79.085778831394 L460.7552 82.539370633356 L465.3857 84.355062017774 L473.0846 80.657938931107 L477.2007 77.303392227628 L486.0197 76.336126979792 L493.13 77.816824633604 L495.8545 83.614427868908 L498.1751 79.7986751898 L506.1896 82.559208587357 L513.9844 83.219610471526 L518.9048 80.277971346254 L525.4764 100.19002184303"/>
 </g>
 <g data-feature-class="Admin-0 country">
  <path d="M287.18812820692 448.99574439174 L276.91175288136 438.88358839166 L270.30285395555 430.62360054373 L264.23035639693 420.28917108733 L264.55126704146 416.96643648603 L266.7345963058 413.76902474762 L269.16390538784 406.48878991154 L271.17928624722 399.07374194616 L274.55324051156 398.49590440172 L289.10118973036 398.59824134254 L289.01489008844 386.55908040108 L293.767054802 385.90148757236 L299.84420323952 387.24198348427 L305.76373855856 385.95294795562 L307.00862381247 386.49857173993 L306.28153641012 390.86338073484 L309.07671463279 396.0324715081 L316.51708735417 395.21730618113 L319.01305903387 397.20529154785 L314.68360753646 408.7878842003 L319.41458491278 414.70182082755 L320.50495763414 422.51073108475 L319.24250239325 429.16226937663 L316.17447260808 433.89117166788 L307.34658767966 433.4701407092 L302.00324458068 428.66433000289 L301.20742752338 433.09929261201 L294.46003575903 434.32514751432 L291.03078771214 436.8423961784 L294.80161697648 443.46461640173 L287.18812820692 448.99574439174"/>
 </g>
 <g data-feature-class="Admin-0 country">
  <path d="M599.766 282.73931410216 L596.3479 279.42220350312 L592.236 273.40138182103 L587.8023371925 270.09623355302 L585.2164 266.5381453945 L576.51258702969 262.40019188417 L569.6565 262.27653085306 L567.2444 260.11550462387 L561.3799 262.54593377955 L555.3111 257.85200199644 L552.1881 265.56392035982 L540.5455 263.40681903288 L539.48228917798 259.26908704976 L543.78900304519 244.01585864365 L544.7757 237.07911184891 L547.9251 233.87123480398 L555.2904 232.14891179831 L560.35129959473 226.15715756488 L566.1566299984 238.2906647774 L568.91150060388 247.85820799263 L574.3933365414 252.91723349831 L588.04314936698 262.6945709361 L593.59991613132 268.57484703951 L599.01870682145 274.51260516532 L602.14616450375 278.04115621502 L607.062660272 281.12625134421 L604.04682368345 283.62853064514 L599.766 282.73931410216"/>
 </g>
 <g data-feature-class="Admin-0 country">
  <path d="M186.85161697605 349.78099614538 L171.17402094734 355.66310629516 L165.61415359706 359.10637863808 L156.60333409832 362.01768603156 L147.68914952798 359.16733015433 L148.14338536782 355.20531374003 L143.80669916989 346.54639821743 L146.4145503255 335.17351881178 L150.62850499674 326.69578117722 L147.97543696287 312.2924393864 L146.61143753253 304.64705353696 L146.8463069173 298.87347917329 L164.21682286789 298.3933914961 L168.63464106452 299.1358631662 L171.86338455411 297.49143988889 L176.48842524424 298.30310327815 L175.7525528484 301.47763002686 L179.92619990245 306.72166247497 L179.90940506196 314.0919675841 L180.86231847342 322.06961966964 L183.37069249687 325.7576680598 L181.15997472342 334.8504371366 L181.95424148775 339.86343470227 L184.61971186536 346.24955283931 L186.85161697605 349.78099614538"/>
 </g>
 <g data-feature-class="Admin-0 country">
  <path d="M555.3111 257.85200199644 L561.3799 262.54593377955 L567.2444 260.11550462387 L569.6565 262.27653085306 L576.5129 262.40008000251 L585.2164 266.5381453945 L587.8024 270.09612864064 L592.236 273.40138182103 L596.3479 279.42220350312 L599.766 282.73931410216 L596.2504 287.26588666904 L592.868 292.05625863547 L593.6463 294.87365449642 L593.8061 297.97474987715 L599.3918 298.14500206398 L601.7997 297.4224587279 L604.01891841001 299.23823147765 L601.838 302.84450875244 L605.5316 308.44107189692 L609.2203 313.32670611871 L613.0379 316.94389246881 L645.7338 328.94575275444 L654.1446 328.88395131607 L625.8864 359.09561563439 L612.8591 359.53798528596 L603.9471 366.61046185548 L597.5365 366.7955692789 L594.80123092644 369.95574935213 L587.9684 369.95396438311 L583.9352 366.56603942578 L574.7998 370.75880817629 L571.84424258766 374.93449702067 L565.1755 374.14625897584 L562.9618 372.99073097878 L560.6201 373.26687658498 L557.45955 373.16572770414 L544.80133238008 364.65207756056 L537.84118632856 364.65207756056 L534.42487662354 361.35036494904 L534.42487662354 355.71573998945 L529.23047118233 354.03051979875 L523.3206 343.08719930977 L518.7536 340.75270635092 L517.0014 336.72364264335 L511.9333 331.80801279015 L505.7922 331.08511112137 L509.1984 325.33201873129 L514.5054 325.08357444657 L516.0002 321.99539539454 L515.8666 312.88963356991 L518.8249 302.25942191613 L523.5619 299.40839757516 L524.5667 295.24234853565 L528.8553 287.44117552676 L534.8867 282.36997501685 L538.9526 272.25733558907 L540.5455 263.40681903288 L552.1881 265.56392035982 L555.3111 257.85200199644"/>
 </g>
 <g data-feature-class="Admin-0 country">
  <path d="M91.857415315513 332.08346840045 L89.029164176179 331.82482181986 L86.98975377578 335.88603977441 L84.162536165092 335.836805218 L82.216918489303 333.68897214852 L82.877601676154 329.63586201639 L78.696978303742 323.446811481 L76.084734651388 324.58477931685 L73.949464469087 324.81019125215 L71.195627392253 325.38946404515 L71.307248486004 321.68198242078 L69.702695263341 319.03410382961 L70.02644811165 316.08954015422 L67.858880159167 311.82799345404 L65.075587515927 308.19802534404 L57.077626090114 308.18674189884 L54.74701899375 310.0996538199 L51.991114859624 310.33043007214 L50.283208772378 312.5183490726 L49.130824332269 315.3315491344 L43.784897411675 319.78451886559 L39.398860220902 313.79045207111 L35.509950308777 309.81955398497 L32.949641470877 308.50423801269 L30.453411409018 306.48538218734 L29.318080191565 301.9927261081 L27.854862011221 299.75054731762 L24.947287548318 298.08171453106 L29.393527782711 293.11149799935 L32.428484651213 293.30082950722 L35.036335806822 291.58742335342 L37.242402701362 291.57106505729 L38.818792268426 290.21721912923 L37.967681428579 286.82972090044 L39.062963411005 285.76017176169 L39.245639599157 282.28900067036 L44.072218375218 282.39463146018 L51.259893342694 284.89121495471 L53.464409944266 284.66242579232 L54.214751741144 283.52374302301 L59.667390494421 284.33335830971 L61.110971630494 283.75580500103 L61.688714143517 287.50279788929 L63.274663850555 287.49117173904 L65.884840445618 286.12792643916 L67.542103629218 286.46919829614 L70.318161571937 289.06553919311 L74.598262076512 289.8819556304 L77.34047195608 287.67005045409 L80.571282502968 286.30187206913 L82.97423660454 284.86873364771 L84.975664827204 285.13717460269 L87.197751415755 287.38494871634 L88.389409944405 290.20402053891 L92.487351025151 294.48057477716 L90.437346956132 297.10514422366 L90.047189892329 300.41929602418 L92.1772924314 299.41769660463 L93.426828564217 300.60553038013 L92.896628368903 303.63552011941 L95.950963899514 306.56598195863 L93.957028759532 307.3534963866 L93.154235383878 310.80032539497 L95.459262646257 314.99190595075 L97.929396109808 323.09641929031 L94.215410920991 324.31233479371 L93.259913687914 325.71745453628 L94.032476350678 327.66864903262 L93.443365022551 332.07199650442 L91.857415315513 332.08346840045"/>
 </g>
 <g data-feature-class="Admin-0 country">
  <path d="M7.8351537591874 276.49124130662 L9.1131119297654 271.93195399554 L20.004436799601 271.63739623901 L22.262696890756 269.19980500095 L25.433046011862 269.03373332619 L29.380091910315 271.56773928323 L32.483261669442 271.61586128635 L35.780476431825 269.88260049836 L37.800766552276 272.85686824054 L33.473382112155 275.16418324758 L29.128427685054 274.98311794332 L24.838767040505 272.81089656214 L21.132274934371 275.18489075822 L19.34039464465 275.26931190758 L16.937440543078 276.7080159584 L7.8351537591874 276.49124130662"/>
 </g>
 <g data-feature-class="Admin-0 country">
  <path d="M24.947287548318 298.08171453106 L19.608595328245 293.81918594532 L15.398258007264 293.14446051117 L13.102532502698 290.26578940574 L13.160926871188 288.71059249997 L10.112017365967 286.54056653579 L9.4758804844543 284.35108242963 L14.773231558694 282.68264576498 L18.084657339957 283.01244704833 L20.76563064726 281.85875620888 L39.245639599157 282.28900067036 L39.062963411005 285.76017176169 L37.967681428579 286.82972090044 L38.818792268426 290.21721912923 L37.242402701362 291.57106505729 L35.036335806822 291.58742335342 L32.428484651213 293.30082950722 L29.393527782711 293.11149799935 L24.947287548318 298.08171453106"/>
 </g>
 <g data-feature-class="Admin-0 country">
  <path d="M124.31176508778 25.865505784367 L130.34033767895 31.082202391556 L139.8498347493 30.234319059774 L150.20734207356 32.938927778599 L154.55126297201 33.069792768886 L158.32054194338 40.874207090505 L158.91585444339 48.229998026093 L162.36990717777 60.874540387506 L165.00488846034 63.401322663519 L163.17140864262 68.007122611975 L150.0843521647 69.998431581096 L145.56059728187 74.355316948128 L139.7754206868 75.38005727012 L139.34598953445 84.041601210932 L127.65393834626 88.644269548419 L123.82910721017 94.441107712105 L115.64407709946 97.540118793131 L105.65812332338 99.294647161949 L89.509238232172 107.74925754379 L89.594504345452 121.20022978284 L88.072309920595 121.20022978284 L88.072116650134 121.20022978284 L88.30156000951 127.23388449231 L82.120025178755 127.59583812782 L78.896966096713 130.14891057431 L74.356157991226 130.14891057431 L70.737774202148 128.69238387733 L62.324851025031 129.89690588719 L59.068202261997 138.60479527198 L55.942811636984 139.41997255571 L51.240773062746 153.37704882991 L37.33929601191 165.21089137101 L34.038722281429 180.21241364691 L29.942073111491 185.06038876564 L28.740854442866 188.93811788383 L6.2207820143894 189.79627410346 L6.0461156732424 189.77934318133 L6.5179215000683 184.79309966333 L10.359030712324 181.85374253313 L13.631182405043 176.21661905886 L12.986260530041 172.54416135224 L16.424293570419 164.85758188513 L21.990362092578 157.89587345962 L25.357081656393 156.12601754837 L28.003948518383 149.70008742214 L28.241143342603 143.8041334358 L31.851000520352 136.92969205652 L38.512351024935 132.85929048149 L44.850982209857 121.38399407231 L45.034266300853 121.22595038282 L50.062033642169 116.8826247044 L59.361207633092 115.6305188282 L67.240830028956 107.85367251666 L72.254477489914 104.80829328665 L80.602288362344 95.212991509907 L78.103216096708 80.764592824218 L81.902467398806 70.662196903701 L83.243470816782 64.432242788364 L89.67563634415 56.385839877877 L99.708615673618 50.909590845943 L107.12495885399 45.928562773897 L113.80697993149 33.345374804676 L116.9504573078 25.806283009589 L124.31176508778 25.865505784367"/>
 </g>
 <g data-feature-class="Admin-0 country">
  <path d="M99.128806103303 365.48752870212 L96.509327750427 365.57589275755 L86.202463329813 360.79388083245 L77.116196239933 353.15078905894 L68.596561230134 347.65045430295 L61.86260533818 341.1570874224 L64.252381949517 337.93414144078 L64.783357291316 335.00208000458 L69.294451448235 329.52551004298 L73.949464469087 324.81019125215 L76.084734651388 324.58477931685 L78.696978303742 323.446811481 L82.877601676154 329.63586201639 L82.216918489303 333.68897214852 L84.162536165092 335.836805218 L86.98975377578 335.88603977441 L89.029164176179 331.82482181986 L91.857415315513 332.08346840045 L91.395944775147 335.01719189715 L92.395883739994 339.88920186635 L90.221597851314 344.36203041527 L93.13692377906 347.12418501454 L96.313474072041 347.79650108845 L100.54887446268 352.00731779328 L100.85324864888 355.96568741985 L99.89671788716 357.22282453677 L99.128806103303 365.48752870212"/>
 </g>
 <g data-feature-class="Admin-0 country">
  <path d="M466.03302566857 711.90732430807 L469.50206456833 715.36142775712 L466.43455154748 720.94976073556 L464.73439692508 724.71385780708 L459.1610937024 726.5198122124 L457.32244624145 730.2237559131 L453.74437006956 731.37821449715 L446.24301915808 722.47322992587 L451.57551020627 715.19321937868 L456.99378413208 710.7178805863 L461.66740066856 708.39143116542 L466.03302566857 711.90732430807"/>
 </g>
 <g data-feature-class="Admin-0 country">
  <path d="M271.17928624722 399.07374194616 L269.30653234096 397.56555254668 L272.74198155973 386.33074938478 L289.01489008844 386.55908040108 L289.10118973036 398.59824134254 L274.55324051156 398.49590440172 L271.17928624722 399.07374194616"/>
 </g>
 <g data-feature-class="Admin-0 country">
  <path d="M324.7634 174.22530654968 L317.68910883855 178.25332307005 L312.0646459479 172.29709538034 L296.24545649472 167.60415333687 L291.85709386449 160.76044320586 L283.96403559623 155.66132461733 L279.28886876678 157.67433951872 L275.73301346078 151.53838700495 L275.35732579802 146.80454407067 L269.44450841518 138.71355339779 L273.4132584152 134.05208160461 L272.54096023811 127.0062676471 L273.81168370817 120.84078941312 L273.08924718473 115.68121388264 L274.85037999723 106.39338844019 L274.30674392952 101.0708528712 L271.07179926805 90.889340247547 L275.95057124073 88.201559899218 L276.81615148162 83.285251665196 L275.75265050505 78.443992607703 L282.619414828 73.921143863828 L285.69829666395 70.146342993539 L290.57293452204 66.752684934185 L291.13827469131 57.619593765162 L302.8835 61.722275455366 L307.083 60.69826746709 L315.4372 62.683255403465 L328.7067 67.981210785694 L333.3898 78.441763051499 L342.3666 80.712643514303 L356.4613 85.594918003165 L367.1145 91.366069495838 L371.9908 88.358348722248 L376.7839 83.006168895751 L374.4537 74.034408582471 L377.5901 68.299049282029 L384.7956 62.744580137052 L391.6802 61.122320499073 L405.208 63.555017119908 L408.6184 68.851141029158 L412.3417 68.901123779291 L415.5254 70.914928150273 L425.4618 72.297590029769 L427.8986 76.180153815039 L424.2791 81.797877304811 L425.8266 86.78097436762 L423.2511 93.935847420407 L426.2504 103.20418878794 L426.2504 143.29119969511 L426.2504 183.56131009749 L426.2504 204.95326697325 L414.7504 204.98561828993 L414.627 209.44426447939 L374.743 188.99733863017 L334.8589 168.2793607011 L324.7634 174.22530654968"/>
 </g>
 <g data-feature-class="Admin-0 country">
  <path d="M671.68558914596 534.87004062621 L674.34020747279 539.23097260489 L676.81550857957 546.01572956189 L678.42471268114 558.42308837393 L681.01576899626 563.26516619429 L680.02151443896 568.24094041361 L678.25314692593 571.29920477868 L674.85645503139 565.21174662556 L672.97646642461 568.28388541308 L674.8838435405 575.99395146854 L673.99604243373 580.41986873842 L671.23652094934 582.83523035406 L670.6065852397 591.71811251249 L666.66832433474 604.01334959239 L661.73580887248 618.66150527378 L655.55789139199 639.0179592621 L651.72763423051 654.13357654859 L647.20801346227 666.86410370822 L639.07517654817 669.47854948956 L630.3454768411 674.16050723626 L624.58613846218 671.33221119212 L616.6476049335 667.37940544239 L613.88808344911 661.57016106298 L613.22817540874 651.86409629814 L609.70694331238 643.19208547754 L608.79227046081 635.40895591533 L610.58337560405 627.64979548773 L615.18722895693 625.79178882982 L615.21410070172 622.22657315445 L619.9936539244 614.13558543724 L620.89437413924 607.36818219961 L618.57461909366 602.35474168016 L616.68016108584 595.69926967689 L615.88124344261 586.01760040341 L619.37508702986 580.16337712894 L620.71557368351 573.5470150804 L625.69976557807 573.16333156907 L631.27771967965 571.02988945559 L634.98033605336 569.14887619159 L639.37283279817 569.00925094238 L645.07222651564 563.09593411959 L653.30169835812 556.72274739907 L656.30254878131 551.53018184756 L654.94087479042 547.12803341175 L659.18867752481 548.36535299731 L664.70100255739 541.22081214147 L664.88548742067 535.05475510096 L668.19691320193 530.47716291783 L671.68558914596 534.87004062621"/>
 </g>
 <g data-feature-class="Admin-0 country">
  <path d="M586.1804 417.75868160733 L592.1017 426.01038241564 L585.0981 430.00554763669 L582.6289 434.1812951115 L578.8808 434.91501400245 L577.4623 441.97015257878 L574.251 446.01241222833 L572.2993 452.68251063491 L568.2726 455.99518003307 L553.9194 445.97192879386 L553.2373 440.16045236193 L516.9766 419.77426500628 L515.28751197105 418.67589590439 L515.18608969667 408.07732453794 L518.0504 404.02539124087 L522.9714 397.40523281394 L526.6103 390.11354512248 L522.2111 378.62359259807 L521.0417 373.59661719816 L516.3004 366.63758701446 L522.45236267854 360.6463125076 L529.23047118233 354.03051979875 L534.42487662354 355.71573998945 L534.42487662354 361.35036494904 L537.84118632856 364.65207756056 L544.80133238008 364.65207756056 L557.45955 373.16572770414 L560.6201 373.26687658498 L562.9618 372.99073097878 L565.1755 374.14625897584 L571.84424258766 374.93449702067 L574.7998 370.75880817629 L583.9352 366.56603942578 L587.9684 369.95396438311 L594.80123092644 369.95574935213 L586.0609 381.31929300292 L586.1804 417.75868160733"/>
 </g>
 <g data-feature-class="Admin-0 country">
  <path d="M521.85029047999 525.15978003606 L529.37437902169 524.33453534337 L541.39121658684 527.21100413115 L544.00190994623 525.92037538863 L550.96324214027 525.6571506327 L554.52684891111 522.5967537737 L560.52596593588 522.76431998187 L571.46069900884 518.8069148376 L579.41628576017 512.90852330919 L581.03427485523 517.4689472853 L580.62293045419 527.62744466967 L581.85851395029 536.60496049771 L582.2466039568 552.67224264688 L584.00515294769 557.73008375971 L581.02290604013 565.12919707972 L577.14303950365 572.34508160621 L570.77598628097 578.80965186415 L561.63390864422 582.7827848051 L550.36172846839 587.86743261534 L539.06319331209 599.16108746107 L535.21536616364 601.08914929202 L528.23439692533 608.61311942762 L524.1142349787 611.06837372069 L523.26932531073 618.6631603483 L528.01167150215 626.76848097247 L529.98467768706 633.07394421098 L530.10888253705 636.30030704277 L531.87585536369 635.76060089653 L531.58974767404 646.38293074146 L529.96814122872 651.44129466865 L532.32510330556 653.30989410251 L530.8378555842 657.86109328421 L526.65774897611 661.76433479913 L518.40864008935 665.48275897148 L506.38250076639 671.45915846077 L501.99672195778 675.55712695549 L502.8540339695 680.24168767184 L505.40995031066 680.99144334113 L504.55160477029 686.8715532252 L496.96705480281 686.77781418402 L496.10819249812 681.83788656832 L494.62817947728 676.84555128272 L493.77448481582 672.86209976097 L495.55628820124 660.56793083555 L492.95437983535 652.79018613181 L488.16449132621 637.50464760854 L498.70028234188 625.28981909032 L501.33733068173 617.57723906829 L502.84783279763 616.60663899541 L503.97747960753 610.34141600566 L502.37034256325 607.19776558541 L502.79925695127 599.29199658971 L504.74900874164 591.99136912705 L504.72678787576 578.73141444745 L499.5327896661 575.37924817572 L494.77080643041 574.62203437456 L492.61538243951 572.04551432954 L487.98103999158 569.85036483792 L479.63994705535 570.05720372572 L478.99295812305 566.18220923049 L478.04521235482 558.80895520126 L508.39064692525 550.29974264144 L514.14740148257 555.25100067015 L516.89865473779 554.30236623888 L520.84673416489 556.91606146629 L521.42706049952 561.0608172555 L519.32331294092 565.87976392029 L520.06331945134 573.20691613047 L526.58850255684 579.64941407874 L529.64102941232 572.41446693465 L533.96944738108 570.22376417332 L533.11885330556 556.89576805673 L528.92996170398 549.43402402907 L525.32191320136 546.11513568494 L521.85029047999 546.2650498961 L519.05046137842 532.9268157138 L521.85029047999 525.15978003606"/>
 </g>
 <g data-feature-class="Admin-0 country">
  <path d="M54.542897086197 261.39533400393 L47.943816682525 254.28573482438 L41.89302322547 246.64471415003 L35.255185497578 243.88637341534 L30.47692418571 240.82127327149 L24.893027294412 240.93585712204 L20.013738557413 243.20866272217 L15.043499299581 242.30873801262 L11.619418895921 245.64919995475 L10.753321890709 240.03194949454 L13.544882763117 234.87811454402 L14.786925813252 224.99836636187 L13.681566926529 214.57108946828 L12.473888703867 209.30259391617 L13.472018993585 204.00074414596 L10.887163850346 198.93148564411 L5.6161677565746 194.31200660142 L7.7984634922603 190.73496080758 L46.959380647365 190.802087492 L45.062855582253 175.22047937642 L47.508184358304 169.63961659177 L56.878155061467 168.66207406489 L56.556210888289 140.50474388706 L89.377463329826 141.08613784595 L89.40640213191 124.13980980571 L127.01702631826 151.1234406019 L111.7125341307 151.3218099208 L116.53911290676 198.1519496379 L121.3651749185 243.66964898357 L123.09762731108 244.95350703207 L120.87295690092 252.23198657178 L80.748015901406 252.38964490261 L79.247849071973 254.69608993696 L75.381935172218 254.00792432294 L69.742486116206 256.05731582936 L62.759449820605 253.17025854573 L59.589617463822 253.40931848942 L57.908324739205 259.510959039 L54.542897086197 261.39533400393"/>
 </g>
 <g data-feature-class="Admin-0 country">
  <path d="M197.7951350425 288.90021997998 L198.02147781594 281.89106008882 L186.49143224298 279.56574666891 L186.1808568849 274.59731465983 L180.54967605806 267.87729821789 L179.20686396495 263.17835930862 L179.99932205415 258.16790470448 L186.40823318698 257.76140706451 L190.10568191747 254.07972446836 L203.75032709982 253.18821576221 L212.63298904647 251.54249720188 L213.48461665064 245.13646532867 L218.95249995144 238.16944921862 L218.924594678 213.95138818494 L233.02605952181 209.22415267511 L261.9793310063 188.23869572794 L296.24545649472 167.60415333687 L312.0646459479 172.29709538034 L317.68910883855 178.25332307005 L324.7634 174.22530654968 L327.21927648182 191.00123165406 L330.96116694407 193.79022069972 L331.1218806485 197.19440846445 L335.28286697664 200.85554542773 L333.10780594148 205.4412364322 L329.2548111498 226.89678526315 L328.72771154042 240.51820112424 L315.97241775782 250.33542124722 L311.65433507551 263.97440048579 L315.81738846094 267.79528282761 L315.79516759506 274.41541140069 L322.20821284248 274.65201580768 L321.20827387763 279.48809424922 L318.38570714585 280.07639221326 L318.06376297267 283.33929617255 L316.20392817448 283.56555272158 L309.43741613019 272.32907210946 L307.09027257549 271.9197257721 L299.27111160541 277.66377833958 L291.52843175512 274.66688581445 L286.14633133192 274.06723525186 L283.26071935274 275.51008233716 L277.39854487355 275.19843019147 L271.49968012743 279.5731672554 L266.39973302454 279.82386451766 L254.29711258179 274.51738508834 L249.5578669763 277.03911190986 L244.45481928748 276.86401849788 L240.70466059606 272.98308662852 L230.6809830244 269.14258609524 L219.93383540066 270.36225069966 L217.32985997747 272.58766922108 L215.92322749049 278.4958978597 L213.05673579126 282.62996903036 L212.36220454126 291.76049889179 L204.73683019227 285.87835574883 L201.15203608418 285.90479441221 L197.7951350425 288.90021997998"/>
 </g>
 <g data-feature-class="Admin-0 country">
  <path d="M480.44144852019 420.52279343429 L484.41174881318 426.16709143176 L483.83348953583 432.05404056579 L480.94736079233 433.32117959045 L475.63399002408 432.66690774673 L472.57216141079 438.3666587298 L466.49966385217 437.57966712319 L467.42518875452 432.10368958198 L468.79874832483 431.33208033408 L469.16926834437 425.37817813281 L472.04506180141 422.5898175691 L474.46558588996 423.61021174202 L480.44144852019 420.52279343429"/>
 </g>
 <g data-feature-class="Admin-0 country">
  <path d="M88.301560009509 127.23388449231 L88.072116650133 121.20022978284 L89.594504345452 121.20022978284 L89.599155224358 121.95582199959 L89.40640213191 124.13980980571 L89.377463329826 141.08613784595 L56.556210888289 140.50474388706 L56.878155061467 168.66207406489 L47.508184358304 169.63961659177 L45.062855582253 175.22047937642 L46.959380647365 190.802087492 L7.7984634922603 190.73496080758 L5.6161677565746 194.31200660142 L6.0461156732427 189.77934318133 L6.2207820143891 189.79627410346 L28.740854442865 188.93811788384 L29.94207311149 185.06038876564 L34.038722281428 180.21241364691 L37.33929601191 165.21089137101 L51.240773062746 153.37704882991 L55.942811636984 139.41997255571 L59.068202261997 138.60479527198 L62.32485102503 129.89690588719 L70.737774202148 128.69238387733 L74.356157991224 130.14891057431 L78.896966096711 130.14891057431 L82.120025178755 127.59583812782 L88.301560009509 127.23388449231"/>
 </g>
 <g data-feature-class="Admin-0 country">
  <path d="M261.2532771326 361.40036571409 L250.87148188516 365.0107076379 L247.07636469764 364.48331833951 L243.23112137081 366.73075025885 L235.23212641635 366.51155577257 L229.87844803091 360.23635452045 L226.58614252959 352.96749562862 L219.50647130561 346.34339106515 L211.99220128605 346.46763965158 L203.16741694356 346.46244102488 L203.741025342 330.21940051889 L203.4883275881 323.79273049263 L205.3734838381 317.40955213836 L208.45391596702 314.30335342645 L213.30478266626 308.02194669816 L212.25110021183 305.28901284954 L214.22152257512 301.194408875 L211.97256424177 295.15077236924 L212.36220454126 291.76049889179 L213.05673579126 282.62996903036 L215.92322749049 278.4958978597 L217.32985997747 272.58766922108 L219.93383540066 270.36225069966 L230.6809830244 269.14258609524 L240.70466059606 272.98308662852 L244.45481928748 276.86401849788 L249.5578669763 277.03911190986 L254.29711258179 274.51738508834 L266.39973302454 279.82386451766 L271.49968012743 279.5731672554 L277.39854487355 275.19843019147 L283.26071935274 275.51008233716 L286.14633133192 274.06723525187 L291.52843175511 274.66688581445 L299.27111160541 277.66377833958 L307.09027257549 271.9197257721 L309.43741613019 272.32907210946 L316.20392817448 283.56555272158 L318.06376297267 283.33929617255 L322.02217768623 287.415600559 L320.93232172919 289.26200799843 L320.40418859117 292.65684032916 L311.97989659895 300.54476872261 L309.33716385154 307.03510105764 L307.92639724997 312.31104736013 L305.80507970439 314.57077616631 L303.78711502339 321.65950190231 L298.43912104551 325.82477673269 L296.8898616054 330.93534356755 L294.64348709367 334.99869284921 L293.70814366919 339.18823307447 L286.8382787603 342.58176217502 L281.22415115611 338.44290013327 L277.43316808318 338.61004413557 L271.47745926154 344.50374865879 L268.58202876023 344.59423824632 L263.82572993209 354.29507620608 L261.2532771326 361.40036571409"/>
 </g>
 <g data-feature-class="Admin-0 country">
  <path d="M515.88432794971 314.09925421926 L514.50003480908 313.89876333945 L514.67170853028 308.8475025018 L513.46999248183 305.35939440826 L508.31978084562 301.34335135643 L507.11806479717 293.99603296672 L508.31978084562 286.45435636828 L503.68459037303 285.75175844081 L502.9978954882 288.03453896831 L496.98931524595 288.56106423513 L499.39274734285 291.54282533418 L500.25111594888 297.67195564619 L494.75755687026 303.26470917357 L489.77901895525 310.59016937279 L484.62880731903 311.63533516788 L476.21679497989 305.70837447574 L472.43997311333 307.80146220941 L471.40993078609 310.76438614122 L466.25971914987 312.68017959128 L465.91637170746 314.76891860727 L455.95929587744 314.76891860727 L454.58590610779 312.68017959128 L447.37560981709 312.33193360415 L443.77046167174 314.07281175136 L441.02368213243 313.20248240517 L435.87347049621 307.2783168441 L434.15673328414 304.48677724954 L426.94643699344 305.88285026286 L424.19965745413 310.59016937279 L421.62455163602 319.63785943889 L418.19107721188 321.54888524654 L415.12019580861 322.65116099289 L414.30853429467 322.17991783839 L410.84052892356 319.2658621126 L410.19819087017 316.11833800199 L411.82289790143 311.89928948942 L411.79344233502 307.75741733382 L406.02583572693 301.40084469214 L404.89205480244 297.04246847763 L405.0126 294.57274923162 L401.3373 291.56451934443 L401.2266 285.62658401701 L399.1305 281.67551802046 L395.6185 282.26853857099 L396.6263 278.50255441487 L399.2162 274.22144797541 L398.0833 269.96073162717 L401.3706 266.80066106292 L399.2855 264.39051483783 L401.9299 258.00870758666 L406.4963 250.37329049232 L415.1193 251.09897920375 L414.627 209.44426447939 L414.7504 204.98561828993 L426.2504 204.95326697325 L426.2504 183.56131009749 L466.4504 183.56131009749 L505.2504 183.56131009749 L544.9127 183.56131009749 L548.1376 194.10742767241 L545.9445 196.04965937943 L547.3974 207.02802356447 L551.0683 219.67104291983 L554.878 222.26738496937 L560.35129959473 226.15715756488 L555.2904 232.14891179831 L547.9251 233.87123480398 L544.7757 237.07911184891 L543.7893 244.01600544905 L539.4826 259.26898957656 L540.5455 263.40681903288 L538.9526 272.25733558907 L534.8867 282.36997501685 L528.8553 287.44117552676 L524.5667 295.24234853565 L523.5619 299.40839757516 L518.8249 302.25942191613 L515.8666 312.88963356991 L515.88432794971 314.09925421926"/>
 </g>
 <g data-feature-class="Admin-0 country">
  <path d="M521.85029047999 525.15978003606 L519.05046137842 532.9268157138 L521.85029047999 546.2650498961 L525.32191320136 546.11513568494 L528.92996170398 549.43402402907 L533.11885330556 556.89576805673 L533.96944738108 570.22376417332 L529.64102941232 572.41446693465 L526.58850255684 579.64941407874 L520.06331945134 573.20691613047 L519.32331294092 565.87976392029 L521.42706049952 561.0608172555 L520.84673416489 556.91606146629 L516.89865473779 554.30236623888 L514.14740148257 555.25100067015 L508.39064692525 550.29974264144 L503.13205317523 547.63224708561 L506.16804357238 538.08825614503 L509.31462153463 534.52128816661 L507.39329178202 526.04962288962 L509.40350499817 517.78562905086 L511.10727697084 515.02811617983 L508.56427973775 506.406017654 L503.84415441221 501.88335603393 L513.6476903823 503.77385280165 L515.65877724097 506.57799027052 L519.05046137842 511.31213880746 L521.85029047999 525.15978003606"/>
 </g>
 <g data-feature-class="Admin-0 country">
  <path d="M339.70016840895 707.58498186232 L332.26858068106 699.01291576733 L328.35512446359 690.78293726254 L326.14750727609 679.8940215726 L323.68254145576 671.85036906101 L320.33184158596 654.91027384338 L320.10756586981 641.8884447225 L318.82754064194 635.98950127535 L314.93682205469 631.54704481397 L309.77537999737 622.68001820423 L304.51885330465 609.89079264508 L302.33604080464 603.23633127595 L294.19958654028 592.93857202699 L293.59238846085 584.88550170134 L298.40501460019 582.89416569713 L304.39121251688 581.11283285572 L310.8740209479 581.42509753742 L316.83541417709 586.15841500972 L318.34746658595 585.42196075826 L358.88349360434 584.96993942583 L365.81226964604 589.99529153528 L390.02216141046 591.48237268403 L408.40088455506 587.2040172702 L416.58901525171 584.82217583665 L423.07389074002 585.42520920035 L427.01990310982 587.78828756295 L427.09483393665 588.65906509602 L421.45745193793 591.0251008041 L418.42404536239 591.04845045049 L412.04045568138 595.17128751696 L408.21898351339 590.83505640998 L392.80080317479 594.51723670897 L385.35681310315 594.86545429007 L385.06174067476 632.78837045475 L375.20497797941 633.16357963861 L375.20807856534 664.94825504662 L375.19774327889 706.26933918386 L366.27167312911 712.0998726595 L360.89939122805 712.93480848261 L354.6119197111 710.77393179189 L350.12537185952 709.94228539466 L348.43968663815 705.07374781333 L344.49057368241 701.9666342846 L339.70016840895 707.58498186232"/>
 </g>
 <g data-feature-class="Admin-0 country">
  <path d="M9.1131119297654 271.93195399554 L4.989332632874 263.90851877404 L-2.6904906462732E-5 260.23027400552 L4.3986710117778 258.26550655572 L9.2433365391409 250.98800879144 L11.619418895921 245.64919995475 L15.043499299581 242.30873801262 L20.013738557413 243.20866272217 L24.893027294412 240.93585712204 L30.47692418571 240.82127327149 L35.255185497578 243.88637341534 L41.89302322547 246.64471415003 L47.943816682525 254.28573482438 L54.542897086197 261.39533400393 L55.001525422788 267.81552065527 L56.973239696884 273.70997844477 L60.716422069946 276.59578367458 L61.571408642215 280.56362415995 L61.110971630494 283.75580500103 L59.667390494421 284.33335830971 L54.214751741144 283.52374302301 L53.464409944266 284.66242579232 L51.259893342694 284.89121495471 L44.072218375218 282.39463146018 L39.245639599157 282.28900067036 L20.76563064726 281.85875620888 L18.084657339957 283.01244704833 L14.773231558694 282.68264576498 L9.4758804844543 284.35108242963 L7.8351537591874 276.49124130662 L16.937440543078 276.7080159584 L19.34039464465 275.26931190758 L21.132274934371 275.18489075822 L24.838767040505 272.81089656214 L29.128427685054 274.98311794332 L33.473382112155 275.16418324758 L37.800766552276 272.85686824054 L35.780476431825 269.88260049836 L32.483261669442 271.61586128635 L29.380091910315 271.56773928323 L25.433046011862 269.03373332619 L22.262696890756 269.19980500095 L20.004436799601 271.63739623901 L9.1131119297654 271.93195399554"/>
 </g>
 <g data-feature-class="Admin-0 country">
  <path d="M515.88432794971 314.09925421926 L516.0002 321.99539539454 L514.5054 325.08357444657 L509.1984 325.33201873129 L505.7922 331.08511112137 L511.9333 331.80801279015 L517.0014 336.72364264335 L518.7536 340.75270635092 L523.3206 343.08719930977 L529.23047118233 354.03051979875 L522.45236267854 360.64631250759 L516.3004 366.63758701446 L510.1504 371.24779139356 L503.1146 371.22454051323 L495.0649 373.56986566512 L488.706 371.32896854735 L484.5889 374.06180099839 L475.7853 367.40149958053 L473.41035314256 363.11789017782 L467.84118403447 365.23979285203 L463.21717687299 364.57972843111 L460.54033768027 366.26385331834 L456.05017247843 365.04776601697 L449.99266108518 356.76307112656 L448.38449051225 353.57888420247 L440.90949458123 349.60123121874 L438.38458409945 343.56651448791 L434.21687983511 339.20905800405 L427.49170893665 333.95949552391 L427.39972488717 330.68001757316 L421.92409012152 326.59918633628 L415.12019580861 322.65116099289 L418.19107721188 321.54888524654 L421.62455163602 319.63785943889 L424.19965745413 310.59016937279 L426.94643699344 305.88285026286 L434.15673328414 304.48677724954 L435.87347049621 307.2783168441 L441.02368213243 313.20248240517 L443.77046167174 314.07281175136 L447.37560981709 312.33193360415 L454.58590610779 312.68017959128 L455.95929587744 314.76891860727 L465.91637170746 314.76891860727 L466.25971914987 312.68017959128 L471.40993078609 310.76438614122 L472.43997311333 307.80146220941 L476.21679497989 305.70837447574 L484.62880731903 311.63533516788 L489.77901895525 310.59016937279 L494.75755687026 303.26470917357 L500.25111594888 297.67195564619 L499.39274734285 291.54282533418 L496.98931524595 288.56106423513 L502.9978954882 288.03453896831 L503.68459037303 285.75175844081 L508.31978084562 286.45435636828 L507.11806479717 293.99603296672 L508.31978084562 301.34335135643 L513.46999248183 305.35939440826 L514.67170853028 308.8475025018 L514.50003480908 313.89876333945 L515.88432794971 314.09925421926"/>
 </g>
 <g data-feature-class="Admin-0 country">
  <path d="M54.542897086197 261.39533400393 L57.908324739205 259.510959039 L59.589617463822 253.40931848942 L62.759449820605 253.17025854573 L69.742486116206 256.05731582936 L75.381935172218 254.00792432294 L79.247849071973 254.69608993696 L80.748015901406 252.38964490261 L120.87295690092 252.23198657178 L123.09762731108 244.95350703207 L121.3651749185 243.66964898357 L116.53911290676 198.1519496379 L111.7125341307 151.3218099208 L127.01702631826 151.1234406019 L160.74985102542 174.98787565551 L194.48267573259 198.47275292333 L196.86030838234 203.47131645435 L203.08628494486 206.51488823614 L207.71701004254 208.24333264512 L207.83173172223 214.98747332734 L218.924594678 213.95138818494 L218.95249995144 238.16944921862 L213.48461665063 245.13646532867 L212.63298904646 251.54249720188 L203.75032709981 253.18821576221 L190.10568191747 254.07972446836 L186.40823318699 257.76140706451 L179.99932205415 258.16790470449 L173.58782709969 258.21550285452 L171.09185542 256.22914925223 L165.58676508794 257.70310064139 L156.24004877931 261.99285605243 L154.3321548991 265.2201987416 L146.57345535479 269.84056336557 L145.21333165687 272.48428681022 L141.022372998 274.57766443887 L136.18649246413 273.19166490606 L133.44634964185 275.69986848284 L131.97873896476 282.73505674818 L124.04098058257 291.21221411022 L124.27197423491 294.66928937113 L121.54475052071 298.9898046827 L122.20698400053 304.89712836296 L118.08113764635 306.40320510619 L115.74587967108 307.68524539191 L114.19817052394 303.33804126605 L111.31074986963 304.484704507 L109.58579055972 304.28635419803 L107.74533442365 307.25218023071 L100.02280838195 307.16844765958 L97.254501904076 305.64277075476 L95.950963899514 306.56598195863 L92.896628368903 303.63552011941 L93.426828564217 300.60553038013 L92.1772924314 299.41769660463 L90.047189892329 300.41929602418 L90.437346956132 297.10514422366 L92.487351025151 294.48057477716 L88.389409944405 290.20402053891 L87.197751415755 287.38494871634 L84.975664827204 285.13717460269 L82.97423660454 284.86873364771 L80.571282502968 286.30187206913 L77.34047195608 287.67005045409 L74.598262076512 289.8819556304 L70.318161571937 289.06553919311 L67.542103629218 286.46919829614 L65.884840445618 286.12792643916 L63.274663850555 287.49117173904 L61.688714143517 287.50279788929 L61.110971630494 283.75580500103 L61.571408642215 280.56362415995 L60.716422069946 276.59578367458 L56.973239696884 273.70997844477 L55.001525422788 267.81552065527 L54.542897086197 261.39533400393"/>
 </g>
 <g data-feature-class="Admin-0 country">
  <path d="M665.63169510297 314.22634445413 L661.11775874227 320.44666187975 L654.1446 328.88395131607 L645.73368484898 328.94578777078 L613.0379 316.94389246881 L609.22015132019 313.32673245101 L605.5316 308.44107189692 L601.838 302.84450875244 L604.01891841001 299.23823147765 L607.70344803242 293.78280384844 L610.95699620952 295.66300200356 L612.91708328635 299.8768368481 L617.42843582543 304.1365980477 L622.39299067571 304.17049085003 L631.81980545439 301.56808700963 L642.70441238803 300.36168733599 L651.50697586463 297.1970487006 L656.46636307168 296.52600142652 L660.03823807169 294.66586309816 L665.73246414593 294.30739988431 L665.67045242718 294.47424893573 L665.63531245323 298.67345195653 L665.63272863161 308.9329404262 L665.63169510297 314.22634445413"/>
 </g>
 <g data-feature-class="Admin-0 country">
  <path d="M496.96705480281 686.77781418402 L494.93100337051 691.76021174054 L489.07813064913 692.97430013082 L483.11001948374 686.89007039519 L483.0164851413 683.02406948921 L485.7470678236 678.83950332224 L486.69119624157 675.60301799139 L489.58197586398 674.81219429665 L494.62817947728 676.84555128272 L496.10819249812 681.83788656832 L496.96705480281 686.77781418402"/>
 </g>
 <g data-feature-class="Admin-0 country">
  <path d="M321.20827387763 279.48809424922 L322.20821284248 274.65201580768 L315.79516759506 274.41541140069 L315.81738846094 267.79528282761 L311.65433507551 263.97440048579 L315.9721 250.33537921229 L328.72771154042 240.51820112424 L329.2548111498 226.89678526315 L333.10780594148 205.4412364322 L335.28286697664 200.85554542773 L331.1218806485 197.19440846445 L330.961 193.79029719968 L327.21927648182 191.00123165406 L324.7634 174.22530654968 L334.8589 168.2793607011 L374.743 188.99733863017 L414.627 209.44426447939 L415.1193 251.09897920375 L406.4963 250.37329049232 L401.9299 258.00870758666 L399.2855 264.39051483783 L401.3706 266.80066106292 L398.0833 269.96073162717 L399.2162 274.22144797541 L396.6263 278.50255441487 L395.6185 282.26853857099 L399.1305 281.67551802046 L401.2266 285.62658401701 L401.3373 291.56451934443 L405.0126 294.57274923162 L404.89205480244 297.04246847763 L398.56169184669 298.77978386866 L393.4886164886 302.90070662263 L386.25908361096 313.98063779197 L376.84725499764 318.67440482578 L367.19048009526 318.04517342394 L364.37049718509 318.97603117931 L365.36061762781 322.53823414244 L360.14594884523 326.07257285808 L355.89969640381 330.01567999242 L343.31028396886 333.87635957791 L340.81224523187 331.59171359668 L339.15601557692 331.39457856218 L337.31271723707 333.98972638653 L329.04500483469 334.74777562444 L330.61131749746 332.01515802078 L327.45905512765 325.05334996373 L326.05035558338 320.8668472241 L321.69506586982 319.14867690609 L315.79258377344 313.23529113642 L317.96506098699 308.44677611059 L322.52240555081 309.46677307531 L325.34393875395 308.74378300432 L330.92912755605 308.8432166187 L325.48604894275 299.60030855555 L325.85191808338 292.82826846937 L325.184 286.04806451569 L321.20827387763 279.48809424922"/>
 </g>
 <g data-feature-class="Admin-0 country">
  <path d="M673.5366 292.59017319121 L678.8382 291.56237494557 L683.5706 288.06451577338 L687.3624 288.03650122034 L687.5891 290.86198846111 L686.6657 296.79667656075 L686.7035 302.14943242876 L684.5922 305.82227817039 L681.7743 316.79032074889 L676.9596 328.08883115924 L670.7774 340.96833000934 L662.1959 355.70692256851 L653.6583 366.94327100495 L641.898 380.61073496924 L631.8903 388.71351242424 L616.9319 398.64656805265 L607.6101 406.25344792265 L596.6661 418.36745486889 L594.3599 423.64169733095 L592.1017 426.01038241564 L586.1804 417.75868160733 L586.0609 381.31929300292 L594.80123092644 369.95574935213 L597.5365 366.7955692789 L603.9471 366.61046185549 L612.8591 359.53798528596 L625.8864 359.09561563439 L654.1446 328.88395131607 L661.11775874227 320.44666187975 L665.63169510296 314.22634445413 L665.63272863161 308.9329404262 L665.63531245323 298.67345195653 L665.67045242718 294.47424893573 L665.7324475851 294.30744444427 L668.928 294.10633539815 L673.5366 292.59017319121"/>
 </g>
 <g data-feature-class="Admin-0 country">
  <path d="M61.86260533818 341.1570874224 L59.168454540643 340.40998108828 L51.969410758062 336.35074584007 L46.759909618718 330.94707932443 L45.010145621315 327.25833467958 L43.784897411675 319.78451886559 L49.130824332269 315.3315491344 L50.283208772378 312.5183490726 L51.991114859624 310.33043007214 L54.74701899375 310.0996538199 L57.077626090114 308.18674189884 L65.075587515927 308.19802534404 L67.858880159167 311.82799345404 L70.02644811165 316.08954015422 L69.702695263341 319.03410382961 L71.307248486004 321.68198242078 L71.195627392253 325.38946404515 L73.949464469087 324.81019125215 L69.294451448235 329.52551004298 L64.783357291316 335.00208000458 L64.252381949517 337.93414144078 L61.86260533818 341.1570874224"/>
 </g>
 <g data-feature-class="Admin-0 country">
  <path d="M194.90280512712 347.63590138032 L186.85161697605 349.78099614538 L184.61971186536 346.24955283931 L181.95424148775 339.86343470227 L181.15997472342 334.8504371366 L183.37069249687 325.7576680598 L180.86231847342 322.06961966964 L179.90940506196 314.0919675841 L179.92619990245 306.72166247497 L175.7525528484 301.47763002686 L176.48842524424 298.30310327815 L185.24603022474 298.52052744145 L183.97375646171 303.87963148073 L187.02835037449 306.88022313201 L190.5010066245 310.43637203143 L190.88082840185 315.41350901217 L192.89517573258 317.50088541085 L192.43990636409 340.69259918971 L194.90280512712 347.63590138032"/>
 </g>
 <g data-feature-class="Admin-0 country">
  <path d="M271.07179926805 90.889340247547 L266.80642654668 69.899914374685 L260.64142817426 65.124891873946 L260.55512853233 62.2508235563 L252.37681635782 55.143204914428 L251.49521642292 46.086770853137 L257.66021479534 39.328722482416 L260.01407628624 29.252134723533 L258.42864334352 17.474896585315 L260.46004389692 11.074279702289 L271.35033523811 6.0111634214104 L278.35042475636 7.5194069123631 L278.05690262095 13.852892156542 L286.53907221733 9.2497568365613 L287.25065668999 11.655076243391 L282.25044510143 17.762926163047 L282.18326573945 23.493476738486 L285.64558670301 26.55776494224 L284.32887120821 37.158093118821 L277.74632726287 43.264362710853 L279.64698644257 49.843191245241 L284.81876378634 50.047732106413 L287.33540603895 55.750797130215 L291.13827469131 57.619593765163 L290.57293452204 66.752684934184 L285.69829666394 70.146342993539 L282.619414828 73.921143863828 L275.75265050505 78.443992607704 L276.81615148162 83.285251665195 L275.95057124073 88.20155989922 L271.07179926805 90.889340247547"/>
 </g>
 <g data-feature-class="Admin-0 country">
  <path d="M494.9121 419.44961115102 L483.949 419.32149081105 L480.44144852019 420.52279343429 L474.46558588996 423.61021174202 L472.04506180141 422.5898175691 L472.12877762172 415.04962043397 L474.4454 411.22846498197 L475.00818842902 403.20155366427 L477.11193598763 398.55172459328 L480.9354752129 393.33538872136 L484.77710118948 390.67828365296 L487.99189204236 387.12536727969 L483.9836 385.77005373672 L484.5889 374.06180099839 L488.706 371.32896854735 L495.0649 373.56986566512 L503.1146 371.22454051323 L510.1504 371.24779139356 L516.3004 366.63758701446 L521.0417 373.59661719816 L522.2111 378.62359259807 L526.6103 390.11354512248 L522.9714 397.40523281394 L518.0504 404.02539124087 L515.18608969667 408.07732453794 L515.28751197105 418.67589590439 L494.9121 419.44961115102"/>
 </g>
 <g data-feature-class="Admin-0 country">
  <path d="M515.28751197105 418.67589590439 L516.9766 419.77426500628 L553.2373 440.16045236193 L553.9194 445.97192879386 L568.2726 455.99518003307 L563.6558 468.36998524032 L564.2481 474.0703679983 L570.6504 477.73851134281 L570.9504 480.35787116458 L568.1973 486.44764751791 L568.7707 489.51554321212 L568.1156 494.34246925189 L571.6078 500.68575480055 L575.7464 510.68638875132 L579.4163 512.90856353431 L571.4604 518.80718025932 L560.52596593588 522.76431998187 L554.5268 522.59696566252 L550.9633 525.65724342718 L544.00190994623 525.92037538863 L541.39121658684 527.21100413115 L529.37437902169 524.33453534337 L521.85029047999 525.15978003606 L519.0504 511.31214197353 L515.65877724097 506.57799027052 L513.6476 503.77384292694 L503.84415441221 501.88335603393 L498.16904861792 498.84284693654 L491.81388097467 497.13948285988 L487.8279133695 495.44538568506 L483.6504 492.87154134754 L478.2504 480.15633007867 L472.4504 474.51663476381 L470.45032710088 468.6821412719 L471.45026606573 463.4562656722 L469.650375929 454.22162944215 L473.785524041 453.74423336068 L477.4136 450.11144345695 L481.3058 444.88435523164 L483.7728 442.78782373316 L483.6805 439.53275403911 L481.527 437.26290351299 L480.9471 433.32090417504 L483.83348953583 432.0540405658 L484.41174881318 426.16709143176 L480.44144852019 420.52279343429 L483.949 419.32149081105 L494.9121 419.44961115102 L515.28751197105 418.67589590439"/>
 </g>
 <g data-feature-class="Admin-0 country">
  <path d="M491.46041417779 715.36142775712 L489.50601150851 717.01992888225 L485.26802729625 722.86544145193 L482.47853348114 728.80856111161 L476.80756180143 737.14850530571 L465.5059260592 749.26998636247 L458.44795893677 756.38091927685 L450.89648188596 761.80629622751 L440.44492345493 766.454827795 L435.34704340934 767.08051281987 L434.05668289501 770.42143283634 L427.97901769316 768.64141089171 L423.02893224392 770.93422808021 L412.19083409935 768.61280632052 L406.13228917745 770.08137225804 L401.99197342222 769.45075208703 L391.67839106541 774.21584152104 L383.14092768647 776.13339058994 L376.96301020598 780.72547031438 L372.41445063565 781.01812877469 L368.18318435959 776.68416645173 L364.8035456877 776.46231626759 L360.49683182049 771.0632461203 L360.02450922935 772.73696754459 L358.6953913908 769.49493891869 L358.75120193767 762.45762328026 L355.50230463948 754.47188794624 L358.72949783611 752.31155634195 L358.46801508871 743.25677618914 L351.91957758869 732.31562045663 L346.89456131263 722.50422049741 L346.87957514726 722.47322992587 L339.70016840895 707.58498186232 L344.49057368241 701.9666342846 L348.43968663815 705.07374781333 L350.12537185952 709.94228539466 L354.6119197111 710.77393179189 L360.89939122805 712.93480848261 L366.27167312911 712.0998726595 L375.19774327889 706.26933918386 L375.20807856534 664.94825504662 L377.90765538827 666.60310728835 L383.83649246512 677.12119108982 L382.91510167735 683.91052660819 L385.14649002372 687.83885735808 L392.30936030369 686.69623211516 L397.31008865658 681.70935751672 L402.04571691181 678.35883831782 L404.49311274515 673.04129275981 L409.3713679535 670.47591739204 L413.58609777123 671.81947985066 L418.36306717229 674.92342008694 L426.50210525826 675.47223274494 L432.89706375438 672.89015074677 L433.90888829865 669.43857878904 L435.66692052522 664.16196333851 L441.10793208123 663.28119210226 L444.11446691197 659.15548080996 L447.44449620886 651.86635157455 L456.42275955525 643.74369099947 L470.57228348109 635.77476852306 L474.64076899543 635.89244947625 L479.47923335092 637.72185898008 L482.84905350067 636.42519510333 L488.16449132621 637.50464760854 L492.95437983535 652.79018613181 L495.55628820124 660.56793083555 L493.77448481582 672.86209976097 L494.62817947728 676.84555128272 L489.58197586398 674.81219429665 L486.69119624157 675.60301799139 L485.7470678236 678.83950332224 L483.0164851413 683.02406948921 L483.11001948374 686.89007039519 L489.07813064913 692.97430013082 L494.93100337051 691.76021174054 L496.96705480281 686.77781418402 L504.55160477029 686.8715532252 L502.05304926898 695.04952496902 L500.87172602678 704.44969130344 L498.28428706193 709.58739072745 L491.46041417779 715.36142775712"/>
  <path d="M466.03302566857 711.90732430807 L461.66740066856 708.39143116542 L456.99378413208 710.7178805863 L451.57551020627 715.19321937868 L446.24301915808 722.47322992587 L453.74437006956 731.37821449715 L457.32244624145 730.2237559131 L459.1610937024 726.5198122124 L464.73439692508 724.71385780708 L466.43455154748 720.94976073556 L469.50206456833 715.36142775712 L466.03302566857 711.90732430807"/>
 </g>
 <g data-feature-class="Admin-0 country">
  <path d="M503.84415441221 501.88335603393 L508.56427973775 506.406017654 L511.10727697084 515.02811617983 L509.40350499817 517.78562905086 L507.39329178202 526.04962288962 L509.31462153463 534.52128816661 L506.16804357238 538.08825614503 L503.13205317523 547.63224708561 L508.39064692525 550.29974264144 L478.04521235482 558.80895520126 L478.99295812305 566.18220923049 L471.41874344203 567.60330957529 L465.72503413211 571.7443772904 L464.50908768029 575.35500865683 L460.92946121543 576.17500396271 L452.23283442503 584.76967648378 L446.69467117631 591.56004402769 L443.31813309036 591.80394226833 L440.06975255649 590.59345646116 L428.89265701608 589.44343380109 L427.09483393665 588.65906509602 L427.01990310982 587.78828756295 L423.07389074002 585.42520920035 L416.58901525171 584.82217583665 L408.40088455506 587.2040172702 L401.87518468524 580.66451179091 L395.12882644954 572.1320993351 L395.58926346126 539.26331101599 L416.41176508895 539.39266873586 L415.55962072045 535.85356873444 L417.04945226343 532.01890738829 L415.29193680118 527.22472615919 L416.42933507593 522.27587539362 L415.37255203556 519.11215704507 L418.82195389104 519.36847904939 L419.39556228948 522.53615828954 L424.08209793403 522.29010078613 L430.43158116973 523.23071043384 L433.77349604605 527.86498590392 L441.781275994 529.29012906342 L447.89459793412 526.06544951724 L450.13838862424 531.41997069999 L457.8014867688 532.84960254971 L461.48601639121 537.2140689948 L465.59325922977 542.86180269822 L473.2465388522 542.94674733004 L472.41041417771 531.89202540512 L469.66587885869 533.75302959559 L462.67457433392 529.77185429497 L459.9729304537 527.95367311915 L461.21109777142 517.71776591545 L462.98721674929 505.68790753929 L460.74911046673 501.21799365728 L463.59906570763 494.75752818951 L466.2795222506 493.54908165669 L479.71126053191 491.84336526259 L483.65055496552 492.87161633526 L487.8279133695 495.44538568506 L491.81388097467 497.13948285988 L498.16904861792 498.84284693654 L503.84415441221 501.88335603393"/>
 </g>
 <g data-feature-class="Admin-0 country">
  <path d="M488.16449132621 637.50464760854 L482.84905350067 636.42519510333 L479.47923335092 637.72185898008 L474.64076899543 635.89244947625 L470.57228348109 635.77476852306 L464.19696202924 630.90590687696 L456.46410070109 629.25562248102 L453.52267817503 622.45493865839 L453.49787348753 618.68467646941 L449.21544754351 617.53699271581 L437.89830887159 605.85912826796 L434.75431473095 599.73879613629 L432.7420344575 597.85633649069 L428.89265701608 589.44343380109 L440.06975255649 590.59345646116 L443.31813309036 591.80394226833 L446.69467117631 591.56004402769 L452.23283442503 584.76967648378 L460.92946121543 576.17500396271 L464.50908768029 575.35500865683 L465.72503413211 571.7443772904 L471.41874344203 567.60330957529 L478.99295812305 566.18220923049 L479.63994705535 570.05720372572 L487.98103999158 569.85036483792 L492.61538243951 572.04551432954 L494.77080643041 574.62203437456 L499.5327896661 575.37924817572 L504.72678787576 578.73141444745 L504.74900874164 591.99136912705 L502.79925695127 599.29199658971 L502.37034256325 607.19776558541 L503.97747960753 610.34141600566 L502.84783279763 616.60663899541 L501.33733068173 617.57723906829 L498.70028234188 625.28981909032 L488.16449132621 637.50464760854"/>
 </g>
</svg>
